<svg width="59" height="54" viewBox="0 0 59 54" fill="none" xmlns="http://www.w3.org/2000/svg">
<path d="M27.7295 0.811588C26.7483 1.75128 26.6203 3.58981 27.4308 4.61122C27.6868 4.97893 28.54 5.42834 29.2653 5.55091C31.057 5.87776 32.4222 4.65208 32.4222 2.69098C32.4222 0.280457 29.5212 -0.904375 27.7295 0.811588Z" fill="#007aff"/>
<path d="M17.7042 1.26237C17.3629 2.28378 16.8936 1.87522 21.6716 4.85772C24.146 6.41026 25.7671 7.71766 26.0231 8.41222C26.279 8.98421 26.4497 10.6593 26.4497 12.171V14.9084L29.6493 14.9492H32.8488V11.8033C32.8488 7.92194 33.2328 7.39081 38.3948 4.24488C41.7223 2.24292 42.1489 1.83436 41.8076 1.18066C41.3384 0.363536 40.6985 0.64953 34.086 4.93944C29.9479 7.59509 29.5213 7.55424 23.0795 3.55032C20.8184 2.12036 18.7707 0.853811 18.4721 0.690387C18.1734 0.526961 17.8748 0.731242 17.7042 1.26237Z" fill="#007aff"/>
<path d="M11.6891 4.12148C11.5611 4.36662 11.5611 7.02228 11.7318 10.0048C12.1157 17.3181 12.2011 17.2363 5.33263 20.5457C2.38902 21.9348 0 23.1605 0 23.2831C0 23.4056 0.213305 23.7733 0.42661 24.1002C0.767899 24.5905 1.57846 24.3453 5.46061 22.5068C10.6653 20.0554 10.9212 20.0146 14.5474 22.0982C15.7419 22.7519 16.8084 23.2831 16.8511 23.2014C16.8938 23.1196 17.2777 22.4251 17.7043 21.6488C18.0883 20.8725 18.8562 19.8103 19.3254 19.32C19.7947 18.7889 20.136 18.2986 20.008 18.2577C19.9227 18.176 18.9415 17.604 17.875 17.0321C14.4621 15.1118 13.9928 14.3764 13.6089 10.3316C13.4382 8.32967 13.2676 6.16429 13.2676 5.46974C13.2249 4.16234 12.2437 3.30436 11.6891 4.12148Z" fill="#007aff"/>
<path d="M46.0312 4.16201C46.0312 4.24372 45.8606 6.44996 45.6473 9.14648C45.2207 14.6621 45.0074 15.0298 41.0399 17.236C39.8027 17.8897 38.8215 18.5843 38.9068 18.7477C38.9922 18.8703 39.5894 20.0551 40.272 21.3625L41.5092 23.6913L44.1542 22.2613C47.823 20.3002 48.9748 20.3819 54.1795 22.8742C58.2323 24.8353 58.4456 24.8761 58.8722 24.0999C59.2988 23.3645 58.8722 23.0785 54.2222 20.8722C51.3639 19.4831 48.7615 17.9306 48.2069 17.2769C47.2684 16.1738 47.2684 15.9286 47.4817 10.0862C47.7377 4.32544 47.695 4.0803 46.9271 4.0803C46.4578 4.0803 46.0739 4.12116 46.0312 4.16201Z" fill="#007aff"/>
<path d="M5.97242 12.6597C5.46049 13.15 5.1192 14.008 5.1192 14.8251C5.1192 17.399 7.93483 18.4613 9.72659 16.6228C11.0064 15.3154 10.9211 13.722 9.55595 12.7006C8.14813 11.6383 7.08161 11.5974 5.97242 12.6597Z" fill="#007aff"/>
<path d="M49.4868 13.0699C48.2496 14.2547 48.3776 16.0933 49.7427 17.1147C50.3826 17.605 51.1079 17.9727 51.4065 17.9727C52.6437 17.9727 54.1795 16.2975 54.1795 14.9493C54.1795 12.4979 51.2785 11.3539 49.4868 13.0699Z" fill="#007aff"/>
<path d="M0.128154 29.6164C-0.213134 30.4743 -0.213134 30.4743 5.46078 33.2934C11.6893 36.3985 12.0306 36.8479 11.6893 42.2818C11.604 44.2838 11.3907 46.7351 11.3053 47.6748C11.1347 49.3091 11.1774 49.4316 12.1159 49.4316C13.1398 49.4316 13.1398 49.3091 13.4384 44.7332C13.8223 39.2993 14.0783 38.7273 17.7045 36.7662L20.0082 35.4997L18.771 33.8246C18.0458 32.8849 17.4912 31.9043 17.4912 31.6183C17.4912 30.5561 16.638 30.6378 14.3769 31.8635C11.1774 33.5794 9.94019 33.4568 4.99151 31.0463C2.68782 29.9024 0.725409 29.0035 0.597426 29.0035C0.512104 29.0035 0.298798 29.2895 0.128154 29.6164Z" fill="#007aff"/>
<path d="M53.9662 31.2911C49.1455 33.6199 47.9084 33.7016 44.4101 31.6997C41.8931 30.3106 40.9546 30.1471 40.9546 31.1277C40.9546 31.332 40.3574 32.3534 39.6748 33.3748C38.9495 34.3962 38.3949 35.295 38.4803 35.3359C38.5656 35.4176 39.8028 36.1121 41.2959 36.9701C45.0074 39.0538 45.306 39.5849 45.562 45.1414C45.7753 49.799 45.7753 49.8398 46.7992 49.8398C47.6097 49.8398 47.7804 49.6764 47.6097 49.1044C47.4817 48.7367 47.3538 46.0811 47.2684 43.2211C47.1405 36.6433 47.1831 36.6024 53.8809 33.2931C57.1231 31.6997 58.8296 30.6374 58.7869 30.2697C58.5736 29.2483 57.891 29.3709 53.9662 31.2911Z" fill="#007aff"/>
<path d="M5.75924 36.9695C5.16199 37.5006 4.69272 38.3995 4.69272 38.9306C4.69272 40.1154 6.3565 41.668 7.63633 41.668C8.83084 41.668 10.6653 39.952 10.6653 38.808C10.6653 37.7049 8.83084 35.9481 7.67899 35.9481C7.20972 35.9481 6.31384 36.3975 5.75924 36.9695Z" fill="#007aff"/>
<path d="M49.4866 37.1741C48.2494 38.3589 48.3348 40.6469 49.6572 41.464C52.4729 43.2208 55.6724 39.4212 53.3261 37.1741C52.8568 36.7247 52.0036 36.3569 51.4063 36.3569C50.8091 36.3569 49.9559 36.7247 49.4866 37.1741Z" fill="#007aff"/>
<path d="M26.4497 41.7095C26.4497 43.6297 26.2364 44.978 25.7671 45.6725C25.4258 46.2854 23.2928 47.9196 21.0744 49.3496C17.3629 51.6784 16.5523 52.6181 17.7895 52.9858C18.0028 53.0675 20.0079 52.0053 22.2263 50.6162C27.6015 47.2251 28.6681 46.8165 30.5878 47.4294C31.3984 47.6745 33.7874 48.9819 35.9204 50.3302C38.0108 51.6376 39.9732 52.8224 40.2719 52.945C40.7838 53.1492 42.1063 52.0461 41.765 51.7193C41.6797 51.6376 39.9306 50.5344 37.8829 49.2679C35.8351 48.0422 33.8301 46.5305 33.4461 45.9585C32.9768 45.3048 32.6355 43.7114 32.5076 41.8321L32.2943 38.8087H29.3933H26.4497V41.7095Z" fill="#007aff"/>
<path d="M27.5163 49.2268C26.1512 50.4933 26.1512 51.6373 27.559 52.9447C28.3696 53.7618 28.8815 53.9253 29.7774 53.721C30.4173 53.5984 31.1425 53.2307 31.4412 52.9856C31.6971 52.6996 32.0811 52.005 32.209 51.3922C32.4224 50.5342 32.2517 50.0439 31.3985 49.2676C30.0333 47.9194 28.8388 47.9194 27.5163 49.2268Z" fill="#007aff"/>
</svg>
