<?xml version="1.0" standalone="no"?>
<!DOCTYPE svg PUBLIC "-//W3C//DTD SVG 20010904//EN"
 "http://www.w3.org/TR/2001/REC-SVG-20010904/DTD/svg10.dtd">
<svg version="1.0" xmlns="http://www.w3.org/2000/svg"
 width="220.000000pt" height="220.000000pt" viewBox="0 0 220.000000 220.000000"
 preserveAspectRatio="xMidYMid meet">
<metadata>
Created by potrace 1.14, written by Peter Selinger 2001-2017
</metadata>
<g transform="translate(0.000000,220.000000) scale(0.100000,-0.100000)"
fill="#000000" stroke="none">
<path d="M1064 2085 c-87 -36 -87 -156 -1 -190 90 -36 165 43 133 142 -14 44
-83 69 -132 48z"/>
<path d="M655 2043 c-8 -32 -21 -21 154 -136 69 -45 134 -95 145 -110 18 -24
22 -46 24 -143 l4 -114 81 -1 c45 -1 94 -2 109 -3 15 -2 31 0 37 3 5 4 11 46
12 95 4 165 15 182 211 306 65 41 120 81 123 89 3 7 0 20 -6 27 -15 19 -48 4
-193 -87 -167 -106 -174 -109 -222 -118 -57 -11 -124 18 -308 133 -77 47 -145
86 -152 86 -6 0 -15 -12 -19 -27z"/>
<path d="M434 1742 c7 -231 3 -259 -48 -304 -17 -15 -111 -67 -208 -115 -98
-48 -178 -93 -178 -99 0 -6 7 -17 16 -25 18 -15 42 -8 173 54 196 91 208 92
335 27 96 -49 111 -51 118 -20 2 8 6 19 10 25 5 5 26 35 48 65 22 30 39 59 37
64 -2 6 -32 25 -66 45 -35 19 -80 50 -101 70 -41 39 -55 84 -65 216 -16 195
-18 205 -52 205 l-26 0 7 -208z"/>
<path d="M1724 1942 c-7 -4 -15 -41 -18 -82 -7 -77 -14 -145 -22 -215 -9 -78
-39 -123 -104 -157 -14 -7 -27 -15 -30 -18 -3 -3 -26 -18 -52 -33 -27 -15 -48
-33 -48 -40 0 -12 75 -156 90 -170 4 -5 54 14 112 42 145 71 161 69 411 -49
98 -45 122 -47 122 -11 0 27 -2 28 -176 117 -160 81 -218 120 -233 156 -10 23
-12 83 -8 240 4 172 2 212 -9 219 -17 11 -21 11 -35 1z"/>
<path d="M227 1632 c-9 -10 -23 -34 -31 -53 -13 -32 -13 -39 3 -75 24 -53 63
-70 118 -54 63 19 98 91 67 140 -33 55 -124 79 -157 42z"/>
<path d="M1864 1626 c-35 -16 -64 -68 -58 -105 6 -34 67 -91 98 -91 43 0 75
22 96 66 19 38 20 46 7 76 -8 18 -21 39 -30 46 -23 20 -78 24 -113 8z"/>
<path d="M4 995 c-4 -8 -4 -21 -1 -29 3 -7 70 -46 149 -85 79 -39 152 -77 163
-84 48 -29 95 -70 95 -82 0 -7 5 -15 12 -17 14 -5 16 -160 4 -293 -13 -141 -8
-159 35 -148 21 6 27 23 33 103 20 239 24 257 70 303 26 26 140 97 156 97 23
0 17 24 -24 82 -24 35 -47 73 -51 86 -8 27 -18 25 -115 -20 -121 -57 -171 -51
-363 44 -122 60 -154 68 -163 43z"/>
<path d="M2120 980 c-30 -9 -93 -35 -140 -58 -156 -74 -192 -74 -324 -7 -85
43 -126 55 -126 36 0 -5 -23 -43 -51 -86 -28 -43 -47 -81 -42 -85 4 -5 24 -17
44 -28 85 -47 89 -50 137 -88 59 -47 66 -75 78 -294 3 -63 7 -116 9 -118 1 -2
15 -4 31 -5 29 -2 29 -2 27 53 -1 30 -2 123 -3 207 -2 222 2 228 242 351 169
86 181 94 176 120 -3 20 -4 20 -58 2z"/>
<path d="M223 726 c-62 -54 -62 -97 -2 -157 12 -12 33 -19 59 -19 33 0 47 7
80 40 45 45 48 62 21 103 -23 35 -48 53 -86 61 -26 6 -37 1 -72 -28z"/>
<path d="M1895 743 c-92 -23 -123 -141 -50 -189 33 -22 63 -24 100 -6 60 30
82 77 59 130 -11 27 -68 74 -84 71 -3 -1 -14 -4 -25 -6z"/>
<path d="M984 651 c-2 -2 -4 -46 -4 -98 0 -148 -10 -163 -182 -280 -110 -74
-158 -114 -158 -131 0 -28 53 -7 194 77 178 105 224 126 270 118 46 -7 129
-50 266 -135 63 -40 124 -72 134 -72 11 0 27 7 37 16 23 21 19 24 -101 98 -96
59 -175 118 -197 146 -13 17 -30 105 -37 194 -3 32 -8 61 -11 65 -7 7 -204 9
-211 2z"/>
<path d="M1059 287 c-28 -14 -51 -35 -64 -59 -19 -35 -19 -39 -3 -65 22 -37
76 -74 102 -69 69 13 106 55 101 114 -3 37 -19 59 -63 84 -28 17 -31 17 -73
-5z"/>
</g>
</svg>
